<?xml version="1.0" encoding="UTF-8"?>
<svg version="1.1" xmlns="http://www.w3.org/2000/svg" width="1024" height="1024">
<path d="M0 0 C2.55444336 1.05053711 2.55444336 1.05053711 5.08984375 2.52734375 C6.03134277 3.06770264 6.9728418 3.60806152 7.94287109 4.16479492 C8.93109863 4.7497876 9.91932617 5.33478027 10.9375 5.9375 C12.47784912 6.82949097 12.47784912 6.82949097 14.04931641 7.73950195 C17.04189888 9.47816842 20.02305075 11.23472679 23 13 C23.74620605 13.44150391 24.49241211 13.88300781 25.26123047 14.33789062 C28.33222578 16.16009006 31.392597 17.99892041 34.4453125 19.8515625 C38.19283906 22.12410901 41.96953208 24.34531523 45.75 26.5625 C47.15758452 27.39056987 48.5651347 28.2186981 49.97265625 29.046875 C53.33155438 31.02212222 56.69449101 32.9903449 60.05911255 34.95582581 C62.49600439 36.38112537 64.93005049 37.81124044 67.36364746 39.24215698 C68.56780942 39.94882943 69.7731122 40.65356196 70.97961426 41.35623169 C72.69123423 42.35344698 74.39841635 43.35826714 76.10546875 44.36328125 C77.09699951 44.94376221 78.08853027 45.52424316 79.11010742 46.12231445 C86.06854055 50.64350303 86.06854055 50.64350303 88 53 C88.60238273 56.0873895 88.81416852 58.39251764 88.76049805 61.47460938 C88.77385948 62.73649834 88.77385948 62.73649834 88.78749084 64.02388 C88.8087591 66.79796477 88.78647613 69.56972267 88.76171875 72.34375 C88.76322139 74.27518959 88.76665194 76.20662855 88.77192688 78.13806152 C88.77625748 82.18333308 88.75942682 86.22780724 88.72729492 90.27294922 C88.68751369 95.45519196 88.69681391 100.63593952 88.72152996 105.81822968 C88.73572026 109.80576813 88.7256206 113.792958 88.70801735 117.7804718 C88.70217193 119.69101631 88.70346342 121.60159655 88.71204185 123.51213074 C88.72004362 126.18402222 88.69576799 128.85373125 88.6628418 131.52539062 C88.67566696 132.7069146 88.67566696 132.7069146 88.68875122 133.91230774 C88.60303207 137.94716099 88.1910505 139.76641127 85.60298157 142.9307251 C83.22048428 144.82472308 80.92404296 146.44954085 78.28125 147.953125 C76.90525635 148.74505249 76.90525635 148.74505249 75.50146484 149.55297852 C74.51098145 150.11299561 73.52049805 150.6730127 72.5 151.25 C70.33560824 152.49291639 68.17156088 153.73643267 66.0078125 154.98046875 C64.86731445 155.63321777 63.72681641 156.2859668 62.55175781 156.95849609 C57.08525257 160.09368096 51.65341742 163.28818641 46.21957397 166.47952271 C44.37658817 167.56156756 42.53276457 168.64217158 40.6887207 169.72241211 C34.966813 173.0755446 29.25162499 176.43924594 23.55078125 179.828125 C22.55578613 180.41907959 21.56079102 181.01003418 20.53564453 181.61889648 C18.70569921 182.70704415 16.87712802 183.79750786 15.05029297 184.89086914 C12.7115986 186.28158751 10.36086045 187.64732148 8 189 C7.28537598 189.42071777 6.57075195 189.84143555 5.83447266 190.27490234 C5.15304199 190.65211426 4.47161133 191.02932617 3.76953125 191.41796875 C3.18405518 191.74949951 2.5985791 192.08103027 1.99536133 192.42260742 C-1.76387822 193.5104089 -5.03419345 192.43337113 -8.51586914 190.87109375 C-9.34723389 190.39800781 -10.17859863 189.92492187 -11.03515625 189.4375 C-11.99405762 188.89689941 -12.95295898 188.35629883 -13.94091797 187.79931641 C-14.97104004 187.20554199 -16.00116211 186.61176758 -17.0625 186 C-18.15449707 185.37915527 -19.24649414 184.75831055 -20.37158203 184.11865234 C-23.92228067 182.09247938 -27.46334776 180.05054841 -31 178 C-31.5896051 177.65827759 -32.17921021 177.31655518 -32.78668213 176.96447754 C-40.64517145 172.40585936 -48.47754807 167.80355951 -56.29980469 163.18310547 C-59.44802471 161.32412366 -62.60073973 159.47290698 -65.75479126 157.62384033 C-68.24374015 156.16388083 -70.73065686 154.70048573 -73.21710205 153.23626709 C-74.95505326 152.21393935 -76.69503028 151.19505796 -78.43505859 150.17626953 C-79.48773926 149.55478027 -80.54041992 148.93329102 -81.625 148.29296875 C-82.54539063 147.7518042 -83.46578125 147.21063965 -84.4140625 146.65307617 C-85.26742187 146.10756104 -86.12078125 145.5620459 -87 145 C-87.86466385 144.47835266 -88.7293277 143.95670532 -89.62019348 143.41925049 C-92.38335115 140.61029502 -92.60634549 138.90832884 -92.68875122 135.03672791 C-92.68020111 134.24544998 -92.671651 133.45417206 -92.6628418 132.63891602 C-92.67320969 131.79780273 -92.68357758 130.95668945 -92.69425964 130.09008789 C-92.72135442 127.31086369 -92.71166286 124.53321491 -92.69921875 121.75390625 C-92.70512676 119.82103535 -92.7123731 117.88816812 -92.72090149 115.95530701 C-92.73278677 111.90417417 -92.72606641 107.85359056 -92.70678711 103.80249023 C-92.68390964 98.61225442 -92.71066427 93.42365667 -92.75184917 88.2335825 C-92.777433 84.24176414 -92.77484557 80.25033734 -92.76395607 76.25846672 C-92.76246946 74.34510754 -92.77015856 72.43171834 -92.78720665 70.51843452 C-92.80718559 67.84144123 -92.7887878 65.16733878 -92.76049805 62.49047852 C-92.77421448 61.70122482 -92.78793091 60.91197113 -92.80206299 60.09880066 C-92.73978267 57.14805543 -92.61717154 54.74487855 -90.6864357 52.41462898 C-89.08201599 51.05680847 -89.08201599 51.05680847 -86 49 C-84.97398682 48.30729004 -84.97398682 48.30729004 -83.92724609 47.60058594 C-83.29898926 47.23223633 -82.67073242 46.86388672 -82.0234375 46.484375 C-80.91597168 45.82828247 -80.91597168 45.82828247 -79.78613281 45.15893555 C-78.59262207 44.46151245 -78.59262207 44.46151245 -77.375 43.75 C-75.58545222 42.68962064 -73.7964194 41.62837188 -72.0078125 40.56640625 C-71.04391602 39.9955127 -70.08001953 39.42461914 -69.08691406 38.83642578 C-63.45498718 35.48595488 -57.8518151 32.08797877 -52.25 28.6875 C-51.66051575 28.32986572 -51.07103149 27.97223145 -50.46368408 27.60375977 C-39.93653682 21.21357275 -29.47646489 14.72028059 -19.046875 8.171875 C-18.18513672 7.63498047 -17.32339844 7.09808594 -16.43554688 6.54492188 C-14.86225616 5.54694837 -13.3046259 4.52364136 -11.76757812 3.47070312 C-11.08630859 3.01115234 -10.40503906 2.55160156 -9.703125 2.078125 C-9.12723633 1.6749707 -8.55134766 1.27181641 -7.95800781 0.85644531 C-5.15608545 -0.3691337 -3.03078526 -0.28263037 0 0 Z M-5.21972656 23.80761719 C-6.01862305 24.29907227 -6.81751953 24.79052734 -7.640625 25.296875 C-8.9872522 26.10946777 -8.9872522 26.10946777 -10.36108398 26.93847656 C-11.31442627 27.5362793 -12.26776855 28.13408203 -13.25 28.75 C-14.23492432 29.35038086 -15.21984863 29.95076172 -16.23461914 30.56933594 C-19.16718876 32.36277281 -22.08528233 34.17772689 -25 36 C-26.49340532 36.92721907 -27.98688597 37.85431682 -29.48046875 38.78125 C-31.43660899 39.99876075 -33.38999882 41.21993627 -35.33691406 42.45214844 C-38.63344864 44.53841083 -41.95033233 46.5743602 -45.31640625 48.546875 C-46.3684021 49.1651416 -46.3684021 49.1651416 -47.44165039 49.79589844 C-48.78476667 50.58159995 -50.13147667 51.36119937 -51.48217773 52.13378906 C-53.02108904 53.03512455 -54.51608928 54.01072619 -56 55 C-56 55.66 -56 56.32 -56 57 C-55.36199463 57.34144043 -54.72398926 57.68288086 -54.06665039 58.03466797 C-32.67673544 69.50075329 -32.67673544 69.50075329 -22.8125 75.375 C-21.47013825 76.16941645 -20.12769294 76.96369172 -18.78515625 77.7578125 C-16.88918191 78.87959328 -14.9945789 80.00324903 -13.10498047 81.13574219 C-11.32997432 82.19226016 -9.54271531 83.22390129 -7.75 84.25 C-6.75484375 84.83265625 -5.7596875 85.4153125 -4.734375 86.015625 C-1.23093156 87.27686464 -0.30812606 86.54052624 3 85 C4.57373278 84.1794454 6.13201455 83.32875569 7.67578125 82.453125 C9.02494629 81.69008057 9.02494629 81.69008057 10.40136719 80.91162109 C11.36204102 80.36328613 12.32271484 79.81495117 13.3125 79.25 C14.31055664 78.6823291 15.30861328 78.1146582 16.33691406 77.52978516 C19.56100497 75.6918224 22.78102133 73.84690032 26 72 C27.6703833 71.04335449 27.6703833 71.04335449 29.37451172 70.06738281 C32.67012708 68.1764012 35.96094149 66.27735958 39.25 64.375 C40.27907471 63.78364258 41.30814941 63.19228516 42.3684082 62.58300781 C43.32448975 62.02709961 44.28057129 61.47119141 45.265625 60.8984375 C46.10899414 60.41036621 46.95236328 59.92229492 47.82128906 59.41943359 C49.83841958 58.1052699 51.38248315 56.77165978 53 55 C39.95415032 47.35068447 26.87808707 39.7571755 13.75 32.25 C12.83486633 31.72599609 12.83486633 31.72599609 11.90124512 31.19140625 C10.15883595 30.19406371 8.41537581 29.19855795 6.671875 28.203125 C5.6725293 27.63239258 4.67318359 27.06166016 3.64355469 26.47363281 C2.77118164 25.98733398 1.89880859 25.50103516 1 25 C0.31873047 24.5565625 -0.36253906 24.113125 -1.06445312 23.65625 C-3.05273338 22.75712623 -3.05273338 22.75712623 -5.21972656 23.80761719 Z M-71 71 C-71.37256195 78.5178736 -71.65588393 86.03478217 -71.82899475 93.55981255 C-71.91215155 97.05590952 -72.02457605 100.54565098 -72.20703125 104.03808594 C-73.61103892 118.65512047 -73.61103892 118.65512047 -69.61459351 132.14239502 C-66.02219209 135.60528176 -61.81489519 137.41245526 -57.18695068 139.13226318 C-53.73547913 140.50173574 -50.69614235 142.46104656 -47.55078125 144.4140625 C-46.34300796 145.12408409 -45.13271939 145.82984486 -43.91992188 146.53125 C-43.32493896 146.87671875 -42.72995605 147.2221875 -42.11694336 147.578125 C-41.52147705 147.92359375 -40.92601074 148.2690625 -40.3125 148.625 C-37.89076216 150.03186178 -35.47017034 151.44066535 -33.05078125 152.8515625 C-32.46797394 153.19108948 -31.88516663 153.53061646 -31.28469849 153.88043213 C-25.9425228 157.00612282 -20.68485459 160.26137831 -15.43823242 163.54443359 C-13.33017009 165.08543089 -13.33017009 165.08543089 -12 165 C-12 144.87 -12 124.74 -12 104 C-17.94 100.720625 -17.94 100.720625 -24 97.375 C-34.46392212 91.58177416 -44.8383685 85.66370277 -55.13085938 79.56982422 C-56.05060547 79.02729004 -56.97035156 78.48475586 -57.91796875 77.92578125 C-58.70969482 77.45567627 -59.5014209 76.98557129 -60.31713867 76.5012207 C-63.81759818 74.54250513 -67.40062137 72.76870388 -71 71 Z M60.1875 74.7109375 C58.71095947 75.58177979 58.71095947 75.58177979 57.20458984 76.47021484 C56.1470752 77.09879395 55.08956055 77.72737305 54 78.375 C46.50293048 82.79285616 38.99321148 87.16920882 31.375 91.375 C30.65900635 91.77710693 29.9430127 92.17921387 29.20532227 92.59350586 C25.78572915 94.50713621 22.35877491 96.32716844 18.81640625 98.00390625 C18.16043457 98.33148926 17.50446289 98.65907227 16.82861328 98.99658203 C15.07549807 99.86883946 13.30207335 100.69994977 11.52734375 101.52734375 C6.73404903 106.21691957 7.96252561 114.32691366 7.88647461 120.74682617 C7.88662991 122.76221397 7.89209603 124.777607 7.90234375 126.79296875 C7.9037587 127.86501053 7.90517365 128.93705231 7.90663147 130.0415802 C7.91217298 133.42358338 7.92471413 136.80551726 7.9375 140.1875 C7.94252257 142.49804591 7.94708415 144.80859287 7.95117188 147.11914062 C7.96212316 152.74611689 7.97880179 158.37305349 8 164 C11.66606126 162.8589319 14.91598855 161.64700559 18.1875 159.63671875 C18.95779541 159.16838623 19.72809082 158.70005371 20.52172852 158.2175293 C21.7484729 157.46016479 21.7484729 157.46016479 23 156.6875 C24.77942623 155.60330999 26.55939455 154.52000928 28.33984375 153.4375 C29.26394043 152.87417969 30.18803711 152.31085938 31.14013672 151.73046875 C36.80041796 148.3055009 42.51472196 144.97105389 48.22460938 141.62963867 C49.89556351 140.64699298 51.55827859 139.65013261 53.21038818 138.63612366 C56 137 56 137 58.87469482 135.63555908 C64.75212386 132.62924614 64.75212386 132.62924614 67.96299744 127.13496399 C68.27484123 123.5843671 68.23822583 120.18945275 68.07421875 116.62890625 C68.05865433 115.35144028 68.0430899 114.0739743 68.02705383 112.75779724 C67.97603349 109.37922725 67.87751708 106.00900827 67.75531006 102.63275146 C67.64225057 99.18102802 67.5924343 95.72843655 67.53710938 92.27539062 C67.41603064 85.51463885 67.23213984 78.75780089 67 72 C64.15893775 72 62.62690663 73.26220498 60.1875 74.7109375 Z " fill="#1D395A" transform="translate(228,402)"/>
<path d="M0 0 C3.0979379 2.20297806 4.88342956 3.82514435 7 7 C7.4125 6.52949219 7.825 6.05898438 8.25 5.57421875 C13.2127611 0.22374194 17.35477471 -2.51782018 24.671875 -3.27734375 C32.11109637 -3.53422294 37.87231677 -2.48792984 43.75 2.1875 C54.05416446 15.06770557 51.12913737 33.19295112 51.0625 48.8125 C51.05747388 50.87304578 51.05291295 52.93359276 51.04882812 54.99414062 C51.03877182 59.99614781 51.01918113 64.99798661 51 70 C44.73 70 38.46 70 32 70 C32.01571045 68.61288818 32.0314209 67.22577637 32.04760742 65.79663086 C32.10205648 60.63246506 32.13640471 55.46832447 32.16479492 50.30395508 C32.17984741 48.07214078 32.20029398 45.8403559 32.22631836 43.60864258 C32.26285688 40.39396896 32.27976215 37.17968772 32.29296875 33.96484375 C32.30845261 32.97290512 32.32393646 31.98096649 32.33988953 30.95896912 C32.34128022 25.18706539 31.80219915 21.08721389 29 16 C26.74259789 14.27102466 25.56981132 14.00296262 22.74609375 13.98828125 C21.98425781 14.09527344 21.22242188 14.20226562 20.4375 14.3125 C19.29087891 14.46138672 19.29087891 14.46138672 18.12109375 14.61328125 C15.82240377 14.9808987 15.82240377 14.9808987 13 16 C7.72737654 26.29646425 9.87980985 40.9405531 9.9375 52.25 C9.94252757 53.97786328 9.94708824 55.70572798 9.95117188 57.43359375 C9.9612123 61.62246076 9.98080455 65.81112549 10 70 C4.06 70 -1.88 70 -8 70 C-8.01458252 68.54182861 -8.02916504 67.08365723 -8.04418945 65.58129883 C-8.10219647 60.16715063 -8.17942995 54.75341727 -8.26245117 49.33959961 C-8.29568906 46.99722022 -8.3237245 44.65476096 -8.34643555 42.31225586 C-8.38000168 38.94350167 -8.43232019 35.57547869 -8.48828125 32.20703125 C-8.49467117 31.16102249 -8.5010611 30.11501373 -8.50764465 29.03730774 C-8.57429689 21.99551888 -8.57429689 21.99551888 -12 16 C-15.72579089 13.51613941 -17.58711402 13.6195788 -22 14 C-25.623996 15.40018027 -26.74202279 16.52699611 -28.60864258 19.94946289 C-30.56774522 24.77854791 -30.4778062 29.5977726 -30.51171875 34.74609375 C-30.52966995 35.75720718 -30.54762115 36.76832062 -30.56611633 37.81007385 C-30.62002042 41.0191743 -30.65405149 44.22812769 -30.6875 47.4375 C-30.7206906 49.62176516 -30.75518186 51.80601098 -30.79101562 53.99023438 C-30.87573564 59.32671649 -30.94264185 64.66315649 -31 70 C-36.94 70 -42.88 70 -49 70 C-49 46.57 -49 23.14 -49 -1 C-35 -2 -35 -2 -31 0 C-31 1.65 -31 3.3 -31 5 C-30.56429687 4.59007812 -30.12859375 4.18015625 -29.6796875 3.7578125 C-21.12657457 -3.98071825 -10.29457576 -5.76496243 0 0 Z M-32 6 C-31 8 -31 8 -31 8 Z " fill="#1D395A" transform="translate(602,475)"/>
<path d="M0 0 C1.62215675 0.00333092 1.62215675 0.00333092 3.27708435 0.00672913 C4.49827469 0.00680466 5.71946503 0.00688019 6.97766113 0.00695801 C8.32022644 0.0120654 9.66279134 0.01728141 11.00535583 0.02259827 C12.37156116 0.02446252 13.73776716 0.02588639 15.10397339 0.02688599 C18.70596654 0.03071058 22.30791959 0.04054035 25.90989685 0.05158997 C29.58298703 0.06180536 33.25608368 0.06638388 36.92918396 0.07142639 C44.14079081 0.08216268 51.35236459 0.09923838 58.56394958 0.12025452 C59.56394958 3.12025452 59.56394958 3.12025452 58.56394958 16.12025452 C44.70394958 16.12025452 30.84394958 16.12025452 16.56394958 16.12025452 C16.89394958 23.71025452 17.22394958 31.30025452 17.56394958 39.12025452 C20.67386355 40.6752115 23.99739008 40.36102408 27.41551208 40.43666077 C28.5765596 40.46783241 28.5765596 40.46783241 29.76106262 40.49963379 C32.2369335 40.565089 34.7129116 40.62399538 37.18894958 40.68275452 C38.86604407 40.72594358 40.54312765 40.769558 42.22019958 40.81361389 C46.33467266 40.92076623 50.44925373 41.02204497 54.56394958 41.12025452 C55.35037502 44.8129165 55.67200551 48.15161259 55.62644958 51.93275452 C55.61742615 52.90857483 55.60840271 53.88439514 55.59910583 54.88978577 C55.58750427 55.62584045 55.57590271 56.36189514 55.56394958 57.12025452 C52.70683354 58.07262653 50.91500697 58.24897384 47.95066833 58.25306702 C47.03092224 58.25435608 46.11117615 58.25564514 45.16355896 58.25697327 C43.72206482 58.25117249 43.72206482 58.25117249 42.25144958 58.24525452 C41.33299255 58.2491217 40.41453552 58.25298889 39.46824646 58.25697327 C31.75357495 58.246325 24.31061026 57.67358742 16.56394958 57.12025452 C16.56394958 69.99025452 16.56394958 82.86025452 16.56394958 96.12025452 C9.96394958 96.12025452 3.36394958 96.12025452 -3.43605042 96.12025452 C-3.45859977 83.75106412 -3.47696453 71.38188727 -3.48786259 59.01268101 C-3.49309183 53.26980389 -3.50019022 47.52694151 -3.51148987 41.78407288 C-3.52231729 36.24685457 -3.52832694 30.70965048 -3.53092766 25.17242241 C-3.53278217 23.05481174 -3.53640328 20.9372019 -3.54178047 18.81959724 C-3.54898897 15.86454177 -3.55004144 12.90954581 -3.54957581 9.95448303 C-3.55317108 9.06975815 -3.55676636 8.18503326 -3.56047058 7.27349854 C-3.54828425 0.17515943 -3.54828425 0.17515943 0 0 Z " fill="#1E395A" transform="translate(364.43605041503906,448.87974548339844)"/>
<path d="M0 0 C6.86142434 5.50557402 11.01162303 13.80627014 12.06103516 22.49536133 C12.22662147 24.62185106 12.34392316 26.74417739 12.4375 28.875 C12.47617187 29.60654297 12.51484375 30.33808594 12.5546875 31.09179688 C12.64783984 32.87333532 12.73120286 34.65538122 12.8125 36.4375 C10.11591109 37.33636297 8.57007008 37.56588789 5.8046875 37.5703125 C4.99410889 37.57224609 4.18353027 37.57417969 3.34838867 37.57617188 C2.47029541 37.57166016 1.59220215 37.56714844 0.6875 37.5625 C-0.67507935 37.55959961 -0.67507935 37.55959961 -2.06518555 37.55664062 C-13.44836535 37.48744781 -24.81809975 36.96953416 -36.1875 36.4375 C-35.76265615 38.2088126 -35.32211614 39.97636537 -34.875 41.7421875 C-34.63136719 42.72687012 -34.38773438 43.71155273 -34.13671875 44.72607422 C-32.70007999 48.82980623 -30.83153305 50.15997934 -27.1875 52.4375 C-22.17722375 54.10759208 -17.85706683 54.01542698 -12.9375 52.3125 C-9.93859619 50.60867603 -9.93859619 50.60867603 -8.6875 47.25 C-6.1875 44.4375 -6.1875 44.4375 -2.93359375 43.98046875 C6.95953101 43.86885401 6.95953101 43.86885401 10.8125 46.4375 C7.5526968 55.65236268 4.05174189 61.81957979 -4.86328125 66.40234375 C-15.10622853 70.96432867 -25.77078294 70.34029666 -36.1875 66.4375 C-44.38348328 61.81316081 -49.84336989 54.71559091 -53.0625 45.9375 C-56.0391451 34.59789964 -55.38778527 21.44552052 -49.93359375 11.046875 C-45.17838817 3.22086909 -38.7327008 -1.49912613 -30.1875 -4.5625 C-19.5098578 -7.10310372 -9.18316157 -6.12789421 0 0 Z M-29.10546875 10.7109375 C-32.29608166 13.30289933 -34.66921528 15.54920986 -36.1875 19.4375 C-36.1875 20.7575 -36.1875 22.0775 -36.1875 23.4375 C-26.2875 23.4375 -16.3875 23.4375 -6.1875 23.4375 C-7.31070672 16.67234147 -7.31070672 16.67234147 -11.1875 11.4375 C-16.92083544 8.37676387 -23.362551 6.89792083 -29.10546875 10.7109375 Z " fill="#1D395A" transform="translate(787.1875,477.5625)"/>
<path d="M0 0 C7.40571789 5.80736151 11.14662997 14.56727984 12.65625 23.625 C13.96279707 35.0275926 12.41680906 46.46751628 5.65234375 55.96875 C-1.09854082 64.21128788 -8.44877729 67.96092096 -18.9609375 69.03125 C-27.94786829 69.42057552 -37.12141815 67.41330165 -44.0703125 61.53125 C-53.02241724 52.69957716 -56.1876294 43.23311518 -56.3125 30.8125 C-56.15988698 18.89111775 -53.76131373 10.74183801 -45.3203125 1.98046875 C-32.39537926 -9.19295485 -14.10359197 -8.88804046 0 0 Z M-32.8125 13.8125 C-37.0626488 19.44107544 -38.01206736 23.653228 -38.0625 30.5625 C-38.083125 31.2534375 -38.10375 31.944375 -38.125 32.65625 C-38.17330425 39.08071578 -36.66845896 43.67100889 -32.375 48.625 C-27.99139225 52.36710417 -24.74600661 53.274423 -19.05859375 53.125 C-14.23154588 52.45341073 -11.57855385 49.72750876 -8.5625 46.125 C-4.57791239 38.58274488 -4.11822563 31.13654366 -5.8125 22.8125 C-7.87188307 16.7159105 -10.95108866 12.74320567 -16.8125 9.8125 C-23.23674915 9.1076813 -27.83094434 9.30537821 -32.8125 13.8125 Z " fill="#1D395A" transform="translate(483.8125,478.1875)"/>
<path d="M0 0 C2.8125 2.4375 2.8125 2.4375 5 5 C5.556875 5.639375 6.11375 6.27875 6.6875 6.9375 C10.76692937 13.34803187 10.26105958 20.07241673 10.1953125 27.3984375 C10.1924826 28.58853424 10.18965271 29.77863098 10.18673706 31.00479126 C10.17556817 34.79496437 10.15046917 38.58489866 10.125 42.375 C10.11496597 44.94921533 10.10584085 47.52343438 10.09765625 50.09765625 C10.07563957 56.39851858 10.0421945 62.69924222 10 69 C10.99 69.495 10.99 69.495 12 70 C5.4 70 -1.2 70 -8 70 C-7.96519531 65.23175781 -7.96519531 65.23175781 -7.9296875 60.3671875 C-7.91407799 57.27930093 -7.90194063 54.19141881 -7.89013672 51.10351562 C-7.88009584 48.96189396 -7.86646046 46.82028595 -7.84912109 44.67871094 C-7.82478882 41.59566879 -7.81349758 38.51280835 -7.8046875 35.4296875 C-7.79436493 34.47633514 -7.78404236 33.52298279 -7.77340698 32.54074097 C-7.77239975 26.53661569 -7.89754672 21.4309616 -12 16.6875 C-15.79440191 13.48597339 -19.22523549 13.70657872 -24 14 C-27.35715571 14.14639698 -27.35715571 14.14639698 -30 16 C-33.76717767 23.61181132 -33.31848367 31.92198525 -33.125 40.1875 C-33.09260235 42.75776795 -33.06392052 45.32808558 -33.0390625 47.8984375 C-33.02649414 49.12143555 -33.01392578 50.34443359 -33.00097656 51.60449219 C-32.99920059 57.77953853 -33.45940378 63.85071805 -34 70 C-39.61 70 -45.22 70 -51 70 C-51 46.24 -51 22.48 -51 -2 C-45.72 -2 -40.44 -2 -35 -2 C-34.34 0.31 -33.68 2.62 -33 5 C-32.56429687 4.59007812 -32.12859375 4.18015625 -31.6796875 3.7578125 C-22.63349478 -4.42683806 -10.9472166 -5.56963652 0 0 Z " fill="#1D395A" transform="translate(715,475)"/>
<path d="M0 0 C5.7648419 4.41089738 8.00554891 9.69298865 9.75390625 16.62890625 C9.75390625 17.28890625 9.75390625 17.94890625 9.75390625 18.62890625 C6.92361477 20.04405199 4.47011492 19.83671617 1.31640625 19.87890625 C0.16269531 19.9046875 -0.99101563 19.93046875 -2.1796875 19.95703125 C-5.24609375 19.62890625 -5.24609375 19.62890625 -7.09765625 18.2421875 C-8.24609375 16.62890625 -8.24609375 16.62890625 -9.18359375 14.56640625 C-10.55528811 12.06508125 -11.60485928 11.66184186 -14.24609375 10.62890625 C-16.93026112 10.35075025 -16.93026112 10.35075025 -19.74609375 10.44140625 C-20.68453125 10.44785156 -21.62296875 10.45429688 -22.58984375 10.4609375 C-24.9522996 10.61032809 -26.9832604 10.96179736 -29.24609375 11.62890625 C-29.24609375 14.26890625 -29.24609375 16.90890625 -29.24609375 19.62890625 C-24.35677886 22.37474549 -19.73840263 23.59643234 -14.30859375 24.69140625 C-8.88228216 25.81830499 -3.55701619 27.03775106 1.75390625 28.62890625 C1.75390625 29.28890625 1.75390625 29.94890625 1.75390625 30.62890625 C2.33140625 30.83515625 2.90890625 31.04140625 3.50390625 31.25390625 C7.0693026 33.43275958 9.0088868 36.70427266 10.50390625 40.56640625 C11.44413044 48.32325584 10.08540396 54.68329474 6.12890625 61.37890625 C-1.55015115 68.65380273 -11.1951117 71.14930546 -21.5703125 70.875 C-30.12354959 70.08835192 -38.31224203 68.19314407 -44.24609375 61.62890625 C-47.96094995 56.04299779 -49.24609375 52.45314983 -49.24609375 45.62890625 C-43.96609375 45.62890625 -38.68609375 45.62890625 -33.24609375 45.62890625 C-32.33463542 47.38671875 -31.42317708 49.14453125 -30.51171875 50.90234375 C-28.91189367 53.08482118 -27.80159157 53.73007598 -25.24609375 54.62890625 C-22.10653772 55.02018514 -22.10653772 55.02018514 -18.74609375 55.00390625 C-17.06 55.04644531 -17.06 55.04644531 -15.33984375 55.08984375 C-12.17125076 54.8679232 -12.17125076 54.8679232 -9.85546875 52.83984375 C-7.60376605 49.74648519 -7.95955416 47.35392096 -8.24609375 43.62890625 C-9.74536334 43.20961899 -11.24558904 42.79375167 -12.74609375 42.37890625 C-13.74253906 42.10304688 -14.73898437 41.8271875 -15.765625 41.54296875 C-18.26107858 40.8875971 -20.74234129 40.27943128 -23.2578125 39.71484375 C-32.09268697 37.70616394 -39.35627709 35.81793957 -45.68359375 29.00390625 C-48.69589171 22.49734266 -49.12197195 16.13316068 -46.80859375 9.31640625 C-43.78085393 2.78395389 -38.71141942 -0.57338022 -32.18359375 -3.24609375 C-21.85996286 -6.24673387 -9.27325131 -5.66071515 0 0 Z " fill="#1D395A" transform="translate(853.24609375,476.37109375)"/>
<path d="M0 0 C1.60294922 0.01353516 1.60294922 0.01353516 3.23828125 0.02734375 C4.04652344 0.03894531 4.85476563 0.05054688 5.6875 0.0625 C5.88175873 2.85384852 6.06819517 5.64533687 6.25 8.4375 C6.30607422 9.2315625 6.36214844 10.025625 6.41992188 10.84375 C6.80078125 16.8359375 6.80078125 16.8359375 5.6875 19.0625 C7.4509375 19.0315625 7.4509375 19.0315625 9.25 19 C13.16163467 18.99302739 16.83247944 19.41999657 20.6875 20.0625 C20.6875 24.3525 20.6875 28.6425 20.6875 33.0625 C16.0675 33.0625 11.4475 33.0625 6.6875 33.0625 C6.6380269 38.40102794 6.60174575 43.73942214 6.57763672 49.078125 C6.56758509 50.89390386 6.55394172 52.70966656 6.53662109 54.52539062 C6.51233594 57.13675935 6.50100852 59.74791387 6.4921875 62.359375 C6.48186493 63.16993347 6.47154236 63.98049194 6.46090698 64.81561279 C6.37007474 70.28883043 6.37007474 70.28883043 8.6875 75.0625 C11.55461888 75.98502193 11.55461888 75.98502193 14.8125 76.3125 C17.720625 76.68375 17.720625 76.68375 20.6875 77.0625 C20.6875 81.6825 20.6875 86.3025 20.6875 91.0625 C13.72002465 93.38499178 2.70833838 93.5399262 -4.125 90.5 C-7.71734336 87.99850506 -9.87771412 85.19840611 -11.3125 81.0625 C-11.97342515 76.11443162 -12.06201157 71.17242651 -12.125 66.1875 C-12.15596012 64.79286802 -12.18778289 63.39825494 -12.22045898 62.00366211 C-12.41694753 52.32219374 -12.24396708 42.70676688 -11.3125 33.0625 C-11.95058594 33.14628906 -12.58867188 33.23007812 -13.24609375 33.31640625 C-14.48552734 33.46916016 -14.48552734 33.46916016 -15.75 33.625 C-16.98556641 33.78162109 -16.98556641 33.78162109 -18.24609375 33.94140625 C-19.26896484 34.00134766 -19.26896484 34.00134766 -20.3125 34.0625 C-21.3125 33.0625 -21.3125 33.0625 -21.41015625 30.12109375 C-21.39855469 28.92613281 -21.38695312 27.73117187 -21.375 26.5 C-21.36597656 25.30246094 -21.35695313 24.10492188 -21.34765625 22.87109375 C-21.33605469 21.94425781 -21.32445312 21.01742188 -21.3125 20.0625 C-18.0125 20.0625 -14.7125 20.0625 -11.3125 20.0625 C-11.3125 13.7925 -11.3125 7.5225 -11.3125 1.0625 C-7.25072627 0.25014525 -4.07899908 -0.04482417 0 0 Z " fill="#1D395A" transform="translate(887.3125,453.9375)"/>
<path d="M0 0 C0.495 8.91 0.495 8.91 1 18 C-1.96223958 18.16276042 -4.92447917 18.32552083 -7.88671875 18.48828125 C-12.0778373 19.17716021 -14.73423129 20.58518992 -17.56958008 23.75439453 C-23.14815899 32.51216357 -21.23827695 46.72123375 -21.125 56.8125 C-21.11493897 58.39127029 -21.1058187 59.97004687 -21.09765625 61.54882812 C-21.07763871 65.36617382 -21.0384515 69.18262071 -21 73 C-26.94 73 -32.88 73 -39 73 C-39.97896205 64.86343651 -40.13061168 56.86980227 -40.09765625 48.6796875 C-40.09578659 47.32634534 -40.09436528 45.9730025 -40.09336853 44.61965942 C-40.08958649 41.0917772 -40.0797941 37.56393745 -40.06866455 34.03607178 C-40.05835666 30.42249119 -40.053851 26.80890361 -40.04882812 23.1953125 C-40.03816708 16.13019117 -40.0211438 9.06509839 -40 2 C-36.19865602 1.33978037 -32.61133398 0.86315542 -28.75 0.875 C-27.89921875 0.87242187 -27.0484375 0.86984375 -26.171875 0.8671875 C-24 1 -24 1 -22 2 C-22 4.31 -22 6.62 -22 9 C-21.56429687 8.60167969 -21.12859375 8.20335937 -20.6796875 7.79296875 C-13.53943993 1.44093032 -10.15610072 0 0 0 Z M-23 10 C-22 12 -22 12 -22 12 Z " fill="#1D395A" transform="translate(544,472)"/>
<path d="M0 0 C0.66 0.33 1.32 0.66 2 1 C2 29.71 2 58.42 2 88 C1.34 87.67 0.68 87.34 0 87 C-0.15357355 75.80433649 -0.30175531 64.60861605 -0.4429636 53.41278934 C-0.50869647 48.21468752 -0.57631959 43.01662434 -0.64819336 37.81860352 C-0.71742625 32.80662843 -0.78178441 27.79461273 -0.84269524 22.78252983 C-0.86685807 20.86585638 -0.89280766 18.94920463 -0.92053413 17.03257942 C-0.95892991 14.35777306 -0.99109597 11.68296153 -1.02172852 9.00805664 C-1.04114754 7.80720428 -1.04114754 7.80720428 -1.06095886 6.58209229 C-1.07902599 4.72137162 -1.04522164 2.8602588 -1 1 C-0.67 0.67 -0.34 0.34 0 0 Z " fill="#26415F" transform="translate(314,454)"/>
<path d="M0 0 C0.66 0.33 1.32 0.66 2 1 C-4.14285714 6.57142857 -4.14285714 6.57142857 -9 7 C-6.25604436 4.05278838 -3.61662784 1.80831392 0 0 Z " fill="#274261" transform="translate(209,410)"/>
<path d="" fill="#23405E" transform="translate(0,0)"/>
<path d="" fill="#203C5E" transform="translate(0,0)"/>
<path d="" fill="#22405E" transform="translate(0,0)"/>
<path d="" fill="#223D5E" transform="translate(0,0)"/>
<path d="" fill="#243E5F" transform="translate(0,0)"/>
<path d="" fill="#2F4764" transform="translate(0,0)"/>
<path d="" fill="#2F4663" transform="translate(0,0)"/>
<path d="" fill="#28415E" transform="translate(0,0)"/>
<path d="" fill="#243F5E" transform="translate(0,0)"/>
<path d="" fill="#2B4460" transform="translate(0,0)"/>
<path d="" fill="#233D5F" transform="translate(0,0)"/>
<path d="" fill="#233F5F" transform="translate(0,0)"/>
<path d="" fill="#213C5D" transform="translate(0,0)"/>
<path d="" fill="#294460" transform="translate(0,0)"/>
<path d="" fill="#243F5F" transform="translate(0,0)"/>
<path d="" fill="#223B5F" transform="translate(0,0)"/>
<path d="" fill="#294461" transform="translate(0,0)"/>
<path d="" fill="#284661" transform="translate(0,0)"/>
<path d="" fill="#1F3B5D" transform="translate(0,0)"/>
<path d="" fill="#1F3C5B" transform="translate(0,0)"/>
<path d="" fill="#203D62" transform="translate(0,0)"/>
<path d="" fill="#1F3C60" transform="translate(0,0)"/>
<path d="" fill="#203D5D" transform="translate(0,0)"/>
<path d="" fill="#233D5E" transform="translate(0,0)"/>
<path d="" fill="#1F3D5E" transform="translate(0,0)"/>
<path d="" fill="#1E395D" transform="translate(0,0)"/>
<path d="" fill="#233E5E" transform="translate(0,0)"/>
<path d="" fill="#294362" transform="translate(0,0)"/>
<path d="" fill="#223C5D" transform="translate(0,0)"/>
<path d="" fill="#233E5D" transform="translate(0,0)"/>
<path d="" fill="#213F5F" transform="translate(0,0)"/>
<path d="" fill="#213E5D" transform="translate(0,0)"/>
<path d="" fill="#294261" transform="translate(0,0)"/>
<path d="" fill="#203D60" transform="translate(0,0)"/>
<path d="" fill="#223F5F" transform="translate(0,0)"/>
<path d="" fill="#213D60" transform="translate(0,0)"/>
<path d="" fill="#223F5E" transform="translate(0,0)"/>
<path d="" fill="#223D5D" transform="translate(0,0)"/>
<path d="" fill="#233E60" transform="translate(0,0)"/>
<path d="" fill="#223E5F" transform="translate(0,0)"/>
<path d="" fill="#203D5E" transform="translate(0,0)"/>
<path d="" fill="#203E5D" transform="translate(0,0)"/>
<path d="" fill="#213E5D" transform="translate(0,0)"/>
<path d="" fill="#223E5E" transform="translate(0,0)"/>
<path d="" fill="#233F60" transform="translate(0,0)"/>
<path d="" fill="#203E5F" transform="translate(0,0)"/>
<path d="" fill="#223E5D" transform="translate(0,0)"/>
<path d="" fill="#1F3C5B" transform="translate(0,0)"/>
<path d="" fill="#203E5E" transform="translate(0,0)"/>
<path d="" fill="#223D5E" transform="translate(0,0)"/>
<path d="" fill="#213F5F" transform="translate(0,0)"/>
<path d="" fill="#3C536D" transform="translate(0,0)"/>
<path d="" fill="#253F5F" transform="translate(0,0)"/>
<path d="" fill="#294462" transform="translate(0,0)"/>
<path d="" fill="#2D4563" transform="translate(0,0)"/>
<path d="" fill="#2C4664" transform="translate(0,0)"/>
<path d="" fill="#233F5F" transform="translate(0,0)"/>
<path d="" fill="#304D68" transform="translate(0,0)"/>
</svg>
